<mxfile host="app.diagrams.net" agent="Mozilla/5.0 (Windows NT 10.0; Win64; x64) AppleWebKit/537.36 (KHTML, like Gecko) Chrome/139.0.0.0 Safari/537.36" version="28.0.7">
  <diagram name="Halaman-1" id="9NQpHsN9vYoc470OThfo">
    <mxGraphModel dx="1337" dy="1023" grid="0" gridSize="10" guides="1" tooltips="1" connect="1" arrows="1" fold="1" page="0" pageScale="1" pageWidth="850" pageHeight="1100" math="0" shadow="0">
      <root>
        <mxCell id="0" />
        <mxCell id="1" parent="0" />
        <mxCell id="VduQ61673rfdcDaqlCEO-44" value="Start" style="strokeWidth=2;html=1;shape=mxgraph.flowchart.start_2;whiteSpace=wrap;" vertex="1" parent="1">
          <mxGeometry x="985.01" y="67" width="168" height="100" as="geometry" />
        </mxCell>
        <mxCell id="VduQ61673rfdcDaqlCEO-77" style="edgeStyle=none;curved=0;rounded=0;orthogonalLoop=1;jettySize=auto;html=1;exitX=1;exitY=0.5;exitDx=0;exitDy=0;entryX=0.5;entryY=0;entryDx=0;entryDy=0;fontSize=12;startSize=8;endSize=8;" edge="1" parent="1" source="VduQ61673rfdcDaqlCEO-45" target="VduQ61673rfdcDaqlCEO-101">
          <mxGeometry relative="1" as="geometry">
            <mxPoint x="1313" y="361" as="targetPoint" />
            <Array as="points">
              <mxPoint x="1313" y="258" />
            </Array>
          </mxGeometry>
        </mxCell>
        <mxCell id="VduQ61673rfdcDaqlCEO-45" value="Login sesuai level" style="shape=parallelogram;html=1;strokeWidth=2;perimeter=parallelogramPerimeter;whiteSpace=wrap;rounded=1;arcSize=12;size=0.23;" vertex="1" parent="1">
          <mxGeometry x="956" y="219" width="197" height="77" as="geometry" />
        </mxCell>
        <mxCell id="VduQ61673rfdcDaqlCEO-71" style="edgeStyle=none;curved=1;rounded=0;orthogonalLoop=1;jettySize=auto;html=1;exitX=0.5;exitY=1;exitDx=0;exitDy=0;fontSize=12;startSize=8;endSize=8;" edge="1" parent="1">
          <mxGeometry relative="1" as="geometry">
            <mxPoint x="754.5" y="462.75008392333984" as="targetPoint" />
            <mxPoint x="754" y="416.0000000000002" as="sourcePoint" />
          </mxGeometry>
        </mxCell>
        <mxCell id="VduQ61673rfdcDaqlCEO-102" value="admin" style="edgeLabel;html=1;align=center;verticalAlign=middle;resizable=0;points=[];fontSize=12;" vertex="1" connectable="0" parent="VduQ61673rfdcDaqlCEO-71">
          <mxGeometry x="-0.276" y="1" relative="1" as="geometry">
            <mxPoint as="offset" />
          </mxGeometry>
        </mxCell>
        <mxCell id="VduQ61673rfdcDaqlCEO-87" style="edgeStyle=none;curved=0;rounded=0;orthogonalLoop=1;jettySize=auto;html=1;exitX=0.5;exitY=1;exitDx=0;exitDy=0;fontSize=12;startSize=8;endSize=8;entryX=0;entryY=0.5;entryDx=0;entryDy=0;" edge="1" parent="1" source="VduQ61673rfdcDaqlCEO-48" target="VduQ61673rfdcDaqlCEO-88">
          <mxGeometry relative="1" as="geometry">
            <mxPoint x="759.5" y="827.7499694824219" as="targetPoint" />
            <Array as="points">
              <mxPoint x="757" y="833" />
            </Array>
          </mxGeometry>
        </mxCell>
        <mxCell id="VduQ61673rfdcDaqlCEO-48" value="konfirmasi pembayaran" style="rounded=1;whiteSpace=wrap;html=1;absoluteArcSize=1;arcSize=14;strokeWidth=2;" vertex="1" parent="1">
          <mxGeometry x="679" y="567" width="162" height="58" as="geometry" />
        </mxCell>
        <mxCell id="VduQ61673rfdcDaqlCEO-72" style="edgeStyle=none;curved=1;rounded=0;orthogonalLoop=1;jettySize=auto;html=1;exitX=0.5;exitY=1;exitDx=0;exitDy=0;entryX=0.5;entryY=0;entryDx=0;entryDy=0;fontSize=12;startSize=8;endSize=8;" edge="1" parent="1" source="VduQ61673rfdcDaqlCEO-49" target="VduQ61673rfdcDaqlCEO-48">
          <mxGeometry relative="1" as="geometry" />
        </mxCell>
        <mxCell id="VduQ61673rfdcDaqlCEO-49" value="dashboard admin" style="rounded=1;whiteSpace=wrap;html=1;absoluteArcSize=1;arcSize=14;strokeWidth=2;" vertex="1" parent="1">
          <mxGeometry x="679" y="464.5" width="162" height="58" as="geometry" />
        </mxCell>
        <mxCell id="VduQ61673rfdcDaqlCEO-64" style="edgeStyle=none;curved=1;rounded=0;orthogonalLoop=1;jettySize=auto;html=1;exitX=0.5;exitY=1;exitDx=0;exitDy=0;fontSize=12;startSize=8;endSize=8;" edge="1" parent="1">
          <mxGeometry relative="1" as="geometry">
            <mxPoint x="1067" y="219.0000228881836" as="targetPoint" />
            <mxPoint x="1067" y="164.25" as="sourcePoint" />
          </mxGeometry>
        </mxCell>
        <mxCell id="VduQ61673rfdcDaqlCEO-69" style="edgeStyle=none;curved=1;rounded=0;orthogonalLoop=1;jettySize=auto;html=1;exitX=0.5;exitY=1;exitDx=0;exitDy=0;fontSize=12;startSize=8;endSize=8;" edge="1" parent="1" target="VduQ61673rfdcDaqlCEO-66">
          <mxGeometry relative="1" as="geometry">
            <mxPoint x="1051" y="416.0000000000002" as="sourcePoint" />
          </mxGeometry>
        </mxCell>
        <mxCell id="VduQ61673rfdcDaqlCEO-103" value="pengurus" style="edgeLabel;html=1;align=center;verticalAlign=middle;resizable=0;points=[];fontSize=12;" vertex="1" connectable="0" parent="VduQ61673rfdcDaqlCEO-69">
          <mxGeometry x="-0.1153" relative="1" as="geometry">
            <mxPoint as="offset" />
          </mxGeometry>
        </mxCell>
        <mxCell id="VduQ61673rfdcDaqlCEO-70" style="edgeStyle=none;curved=1;rounded=0;orthogonalLoop=1;jettySize=auto;html=1;exitX=0.5;exitY=1;exitDx=0;exitDy=0;entryX=0.5;entryY=0;entryDx=0;entryDy=0;fontSize=12;startSize=8;endSize=8;" edge="1" parent="1" source="VduQ61673rfdcDaqlCEO-66" target="VduQ61673rfdcDaqlCEO-67">
          <mxGeometry relative="1" as="geometry" />
        </mxCell>
        <mxCell id="VduQ61673rfdcDaqlCEO-66" value="dashboard pengurus" style="rounded=1;whiteSpace=wrap;html=1;absoluteArcSize=1;arcSize=14;strokeWidth=2;" vertex="1" parent="1">
          <mxGeometry x="970" y="464.5" width="162" height="58" as="geometry" />
        </mxCell>
        <mxCell id="VduQ61673rfdcDaqlCEO-86" style="edgeStyle=none;curved=1;rounded=0;orthogonalLoop=1;jettySize=auto;html=1;exitX=0;exitY=0.5;exitDx=0;exitDy=0;fontSize=12;startSize=8;endSize=8;" edge="1" parent="1" source="VduQ61673rfdcDaqlCEO-67">
          <mxGeometry relative="1" as="geometry">
            <mxPoint x="846.0000152587891" y="593.25" as="targetPoint" />
          </mxGeometry>
        </mxCell>
        <mxCell id="VduQ61673rfdcDaqlCEO-67" value="pengecekan denda" style="rounded=1;whiteSpace=wrap;html=1;absoluteArcSize=1;arcSize=14;strokeWidth=2;" vertex="1" parent="1">
          <mxGeometry x="970" y="564" width="162" height="58" as="geometry" />
        </mxCell>
        <mxCell id="VduQ61673rfdcDaqlCEO-78" style="edgeStyle=none;curved=1;rounded=0;orthogonalLoop=1;jettySize=auto;html=1;exitX=0.5;exitY=1;exitDx=0;exitDy=0;fontSize=12;startSize=8;endSize=8;" edge="1" parent="1">
          <mxGeometry relative="1" as="geometry">
            <mxPoint x="1313.25" y="461.74998474121094" as="targetPoint" />
            <mxPoint x="1313" y="419" as="sourcePoint" />
          </mxGeometry>
        </mxCell>
        <mxCell id="VduQ61673rfdcDaqlCEO-104" value="user" style="edgeLabel;html=1;align=center;verticalAlign=middle;resizable=0;points=[];fontSize=12;" vertex="1" connectable="0" parent="VduQ61673rfdcDaqlCEO-78">
          <mxGeometry x="-0.264" y="1" relative="1" as="geometry">
            <mxPoint as="offset" />
          </mxGeometry>
        </mxCell>
        <mxCell id="VduQ61673rfdcDaqlCEO-79" style="edgeStyle=none;curved=1;rounded=0;orthogonalLoop=1;jettySize=auto;html=1;exitX=0.5;exitY=1;exitDx=0;exitDy=0;fontSize=12;startSize=8;endSize=8;" edge="1" parent="1" source="VduQ61673rfdcDaqlCEO-74">
          <mxGeometry relative="1" as="geometry">
            <mxPoint x="1313.25" y="561.7499847412109" as="targetPoint" />
          </mxGeometry>
        </mxCell>
        <mxCell id="VduQ61673rfdcDaqlCEO-74" value="dashbord user" style="rounded=1;whiteSpace=wrap;html=1;absoluteArcSize=1;arcSize=14;strokeWidth=2;" vertex="1" parent="1">
          <mxGeometry x="1232" y="464.5" width="162" height="58" as="geometry" />
        </mxCell>
        <mxCell id="VduQ61673rfdcDaqlCEO-80" style="edgeStyle=none;curved=1;rounded=0;orthogonalLoop=1;jettySize=auto;html=1;exitX=0.5;exitY=1;exitDx=0;exitDy=0;fontSize=12;startSize=8;endSize=8;entryX=0.5;entryY=0;entryDx=0;entryDy=0;" edge="1" parent="1" source="VduQ61673rfdcDaqlCEO-75" target="VduQ61673rfdcDaqlCEO-76">
          <mxGeometry relative="1" as="geometry">
            <mxPoint x="1319.0000457763672" y="667.7499694824219" as="targetPoint" />
          </mxGeometry>
        </mxCell>
        <mxCell id="VduQ61673rfdcDaqlCEO-75" value="peminjaman&amp;amp;pengembalian buku" style="rounded=1;whiteSpace=wrap;html=1;absoluteArcSize=1;arcSize=14;strokeWidth=2;" vertex="1" parent="1">
          <mxGeometry x="1232" y="564" width="162" height="58" as="geometry" />
        </mxCell>
        <mxCell id="VduQ61673rfdcDaqlCEO-82" style="edgeStyle=none;curved=0;rounded=0;orthogonalLoop=1;jettySize=auto;html=1;exitX=0;exitY=0.5;exitDx=0;exitDy=0;fontSize=12;startSize=8;endSize=8;entryX=0.5;entryY=1;entryDx=0;entryDy=0;" edge="1" parent="1" source="VduQ61673rfdcDaqlCEO-76" target="VduQ61673rfdcDaqlCEO-67">
          <mxGeometry relative="1" as="geometry">
            <mxPoint x="1169" y="715" as="targetPoint" />
            <Array as="points">
              <mxPoint x="1054" y="718" />
            </Array>
          </mxGeometry>
        </mxCell>
        <mxCell id="VduQ61673rfdcDaqlCEO-85" value="Ada" style="edgeLabel;html=1;align=center;verticalAlign=middle;resizable=0;points=[];fontSize=12;" vertex="1" connectable="0" parent="VduQ61673rfdcDaqlCEO-82">
          <mxGeometry x="0.2869" y="-1" relative="1" as="geometry">
            <mxPoint as="offset" />
          </mxGeometry>
        </mxCell>
        <mxCell id="VduQ61673rfdcDaqlCEO-89" style="edgeStyle=none;curved=1;rounded=0;orthogonalLoop=1;jettySize=auto;html=1;exitX=0.5;exitY=1;exitDx=0;exitDy=0;fontSize=12;startSize=8;endSize=8;" edge="1" parent="1" source="VduQ61673rfdcDaqlCEO-76">
          <mxGeometry relative="1" as="geometry">
            <mxPoint x="1313.25" y="799.7500152587891" as="targetPoint" />
          </mxGeometry>
        </mxCell>
        <mxCell id="VduQ61673rfdcDaqlCEO-90" value="Tidak" style="edgeLabel;html=1;align=center;verticalAlign=middle;resizable=0;points=[];fontSize=12;" vertex="1" connectable="0" parent="VduQ61673rfdcDaqlCEO-89">
          <mxGeometry x="-0.0054" relative="1" as="geometry">
            <mxPoint as="offset" />
          </mxGeometry>
        </mxCell>
        <mxCell id="VduQ61673rfdcDaqlCEO-76" value="cek denda" style="rhombus;whiteSpace=wrap;html=1;" vertex="1" parent="1">
          <mxGeometry x="1273" y="674" width="80" height="80" as="geometry" />
        </mxCell>
        <mxCell id="VduQ61673rfdcDaqlCEO-88" value="end" style="rounded=0;whiteSpace=wrap;html=1;" vertex="1" parent="1">
          <mxGeometry x="1257" y="803" width="120" height="60" as="geometry" />
        </mxCell>
        <mxCell id="VduQ61673rfdcDaqlCEO-96" value="" style="shape=stencil(fZbdcgIhDIWfZm8zQAg/17Z9j85U606tdqz9e/tmZ0c0uJ47xP0I5JwEBl59bp8/1kNwn6fj4W39M76ctgM/DCGM++36OJ50NPDjwKvN4bh+PR6+9i/z74/n6ctp9H74nlb4nbmSKZeJCu5vngmZ6jzzNAO7cX8FVKEsBuBKrgKg9oAE8gkCbLeUhEoEQKSUDZDLeWYRKIl8MEDRmHwfyBrBG6Amyu4+kDxxMoB3jhwgYu7TVAsVkFcWCs4CTBEoF4RctKeOxHIf8IXYpikHikAIf+MNUW94AGSSaoAoFIE3AlOyeWU+p2E5S9yfQZcQILVuQOwZdJNoS9Ls3wA5u2XZTIHECqeJ9kDpSaauRiNVcAY1QhdBzeLBli5WazpkSsBLV25uRaqWRyFawTQzRRIQYirJzq5atkBqLfouwqUxLBepthWb10vrWZY6UOAeyKCCtDV625mm9gmUC4Wc3VLJMMIE1BsA2FW9JraVlQB7n3c9oMKhCLEvIM1zBPZ25/umNQ1tVEC2G+fFCC8g398O2hNQuQlVu752DBfA+q0ptnqO5JFmeuIuo9DY7KjY71UxdJV4EntifPWorW++R/dC4t7V3DlIB5cHx2bc7eb3yvX//QNFp+bHDT/+Aw==);lineShape=1;strokeColor=default;" vertex="1" parent="1">
          <mxGeometry x="1065.6685503664835" y="208.82184878281805" width="6.67505681730745" height="6.664623166224634" as="geometry" />
        </mxCell>
        <mxCell id="VduQ61673rfdcDaqlCEO-106" style="edgeStyle=none;curved=1;rounded=0;orthogonalLoop=1;jettySize=auto;html=1;exitX=1;exitY=0.5;exitDx=0;exitDy=0;fontSize=12;startSize=8;endSize=8;" edge="1" parent="1" source="VduQ61673rfdcDaqlCEO-99" target="VduQ61673rfdcDaqlCEO-100">
          <mxGeometry relative="1" as="geometry">
            <mxPoint x="1005.7273282137783" y="385.0909174138849" as="targetPoint" />
          </mxGeometry>
        </mxCell>
        <mxCell id="VduQ61673rfdcDaqlCEO-109" value="bukan" style="edgeLabel;html=1;align=center;verticalAlign=middle;resizable=0;points=[];fontSize=12;" vertex="1" connectable="0" parent="VduQ61673rfdcDaqlCEO-106">
          <mxGeometry x="-0.1429" y="1" relative="1" as="geometry">
            <mxPoint as="offset" />
          </mxGeometry>
        </mxCell>
        <mxCell id="VduQ61673rfdcDaqlCEO-107" style="edgeStyle=none;curved=0;rounded=0;orthogonalLoop=1;jettySize=auto;html=1;exitX=0.5;exitY=0;exitDx=0;exitDy=0;entryX=0;entryY=0.5;entryDx=0;entryDy=0;fontSize=12;startSize=8;endSize=8;" edge="1" parent="1" source="VduQ61673rfdcDaqlCEO-99" target="VduQ61673rfdcDaqlCEO-45">
          <mxGeometry relative="1" as="geometry">
            <Array as="points">
              <mxPoint x="754" y="257" />
            </Array>
          </mxGeometry>
        </mxCell>
        <mxCell id="VduQ61673rfdcDaqlCEO-108" value="bukan" style="edgeLabel;html=1;align=center;verticalAlign=middle;resizable=0;points=[];fontSize=12;" vertex="1" connectable="0" parent="VduQ61673rfdcDaqlCEO-107">
          <mxGeometry x="0.4073" y="2" relative="1" as="geometry">
            <mxPoint as="offset" />
          </mxGeometry>
        </mxCell>
        <mxCell id="VduQ61673rfdcDaqlCEO-99" value="admin" style="rhombus;whiteSpace=wrap;html=1;" vertex="1" parent="1">
          <mxGeometry x="714" y="336" width="80" height="80" as="geometry" />
        </mxCell>
        <mxCell id="VduQ61673rfdcDaqlCEO-100" value="pengurus" style="rhombus;whiteSpace=wrap;html=1;" vertex="1" parent="1">
          <mxGeometry x="1011" y="344" width="80" height="80" as="geometry" />
        </mxCell>
        <mxCell id="VduQ61673rfdcDaqlCEO-105" style="edgeStyle=none;curved=1;rounded=0;orthogonalLoop=1;jettySize=auto;html=1;exitX=0;exitY=0.5;exitDx=0;exitDy=0;entryX=1;entryY=0.5;entryDx=0;entryDy=0;fontSize=12;startSize=8;endSize=8;" edge="1" parent="1" source="VduQ61673rfdcDaqlCEO-101" target="VduQ61673rfdcDaqlCEO-100">
          <mxGeometry relative="1" as="geometry" />
        </mxCell>
        <mxCell id="VduQ61673rfdcDaqlCEO-111" value="bukan" style="edgeLabel;html=1;align=center;verticalAlign=middle;resizable=0;points=[];fontSize=12;" vertex="1" connectable="0" parent="VduQ61673rfdcDaqlCEO-105">
          <mxGeometry x="-0.0244" relative="1" as="geometry">
            <mxPoint as="offset" />
          </mxGeometry>
        </mxCell>
        <mxCell id="VduQ61673rfdcDaqlCEO-101" value="user" style="rhombus;whiteSpace=wrap;html=1;" vertex="1" parent="1">
          <mxGeometry x="1273" y="344" width="80" height="80" as="geometry" />
        </mxCell>
      </root>
    </mxGraphModel>
  </diagram>
</mxfile>
